HIERARCHY
ROOT Hips
{
    OFFSET   0.000000   0.000000   0.000000
    CHANNELS 6 Xposition Yposition Zposition Zrotation Xrotation Yrotation
    JOINT Chest
    {
        OFFSET   0.000000   8.007230   0.000000
        CHANNELS 3 Zrotation Xrotation Yrotation
        JOINT Chest2
        {
            OFFSET   0.000000  22.077100   0.000000
            CHANNELS 3 Zrotation Xrotation Yrotation
            JOINT Neck
            {
                OFFSET   0.000000  23.254800   0.000000
                CHANNELS 3 Zrotation Xrotation Yrotation
                JOINT Head
                {
                    OFFSET   0.000010  14.370000   1.956600
                    CHANNELS 3 Zrotation Xrotation Yrotation
                    End Site
                    {
                        OFFSET   0.000000  19.566000   0.000000
                    }
                }
            }
            JOINT LeftCollar
            {
                OFFSET   3.911900  19.017000  -0.467062
                CHANNELS 3 Zrotation Xrotation Yrotation
                JOINT LeftShoulder
                {
                    OFFSET  10.383700   0.000000   0.000000
                    CHANNELS 3 Zrotation Xrotation Yrotation
                    JOINT LeftElbow
                    {
                        OFFSET  26.662100   0.001193   0.000835
                        CHANNELS 3 Zrotation Xrotation Yrotation
                        JOINT LeftWrist
                        {
                            OFFSET  28.869000  -0.000058  -0.000075
                            CHANNELS 3 Zrotation Xrotation Yrotation
                            JOINT LeftFinger0
                            {
                                OFFSET   2.044660  -2.323460   3.252850
                                CHANNELS 3 Zrotation Xrotation Yrotation
                                JOINT LeftFinger01
                                {
                                    OFFSET   3.088130   0.000000   0.000000
                                    CHANNELS 3 Zrotation Xrotation Yrotation
                                    JOINT LeftFinger02
                                    {
                                        OFFSET   2.639450   0.000000   0.000000
                                        CHANNELS 3 Zrotation Xrotation Yrotation
                                        End Site
                                        {
                                            OFFSET   2.582190   0.000000   0.000000
                                        }
                                    }
                                }
                            }
                            JOINT LeftFinger1
                            {
                                OFFSET   8.364480   0.000000   3.252850
                                CHANNELS 3 Zrotation Xrotation Yrotation
                                JOINT LeftFinger11
                                {
                                    OFFSET   4.646920   0.000000   0.000000
                                    CHANNELS 3 Zrotation Xrotation Yrotation
                                    JOINT LeftFinger12
                                    {
                                        OFFSET   2.323460   0.000000   0.000000
                                        CHANNELS 3 Zrotation Xrotation Yrotation
                                        End Site
                                        {
                                            OFFSET   2.273050   0.000000   0.000000
                                        }
                                    }
                                }
                            }
                            JOINT LeftFinger2
                            {
                                OFFSET   8.364490   0.000016   1.078090
                                CHANNELS 3 Zrotation Xrotation Yrotation
                                JOINT LeftFinger21
                                {
                                    OFFSET   5.111620   0.000000   0.000000
                                    CHANNELS 3 Zrotation Xrotation Yrotation
                                    JOINT LeftFinger22
                                    {
                                        OFFSET   2.788150   0.000012   0.000000
                                        CHANNELS 3 Zrotation Xrotation Yrotation
                                        End Site
                                        {
                                            OFFSET   2.727660   0.000000   0.000000
                                        }
                                    }
                                }
                            }
                            JOINT LeftFinger3
                            {
                                OFFSET   7.899780   0.000014  -1.078090
                                CHANNELS 3 Zrotation Xrotation Yrotation
                                JOINT LeftFinger31
                                {
                                    OFFSET   4.646930   0.000000   0.000000
                                    CHANNELS 3 Zrotation Xrotation Yrotation
                                    JOINT LeftFinger32
                                    {
                                        OFFSET   2.323470   0.000000   0.000000
                                        CHANNELS 3 Zrotation Xrotation Yrotation
                                        End Site
                                        {
                                            OFFSET   2.273050   0.000000   0.000000
                                        }
                                    }
                                }
                            }
                            JOINT LeftFinger4
                            {
                                OFFSET   7.435090   0.000000  -3.252850
                                CHANNELS 3 Zrotation Xrotation Yrotation
                                JOINT LeftFinger41
                                {
                                    OFFSET   3.717550   0.000000   0.000000
                                    CHANNELS 3 Zrotation Xrotation Yrotation
                                    JOINT LeftFinger42
                                    {
                                        OFFSET   1.858770   0.000000   0.000000
                                        CHANNELS 3 Zrotation Xrotation Yrotation
                                        End Site
                                        {
                                            OFFSET   1.818440   0.000000   0.000000
                                        }
                                    }
                                }
                            }
                        }
                    }
                }
            }
            JOINT RightCollar
            {
                OFFSET  -3.911900  19.017000  -0.467063
                CHANNELS 3 Zrotation Xrotation Yrotation
                JOINT RightShoulder
                {
                    OFFSET -10.383700   0.000023   0.000000
                    CHANNELS 3 Zrotation Xrotation Yrotation
                    JOINT RightElbow
                    {
                        OFFSET -26.662100   0.001246   0.001011
                        CHANNELS 3 Zrotation Xrotation Yrotation
                        JOINT RightWrist
                        {
                            OFFSET -28.869000  -0.000026  -0.000078
                            CHANNELS 3 Zrotation Xrotation Yrotation
                            JOINT RightFinger0
                            {
                                OFFSET  -2.044660  -2.323490   3.252850
                                CHANNELS 3 Zrotation Xrotation Yrotation
                                JOINT RightFinger01
                                {
                                    OFFSET  -3.088130   0.000000   0.000000
                                    CHANNELS 3 Zrotation Xrotation Yrotation
                                    JOINT RightFinger02
                                    {
                                        OFFSET  -2.639460   0.000000   0.000000
                                        CHANNELS 3 Zrotation Xrotation Yrotation
                                        End Site
                                        {
                                            OFFSET  -2.582190   0.000000   0.000000
                                        }
                                    }
                                }
                            }
                            JOINT RightFinger1
                            {
                                OFFSET  -8.364480   0.000000   3.252850
                                CHANNELS 3 Zrotation Xrotation Yrotation
                                JOINT RightFinger11
                                {
                                    OFFSET  -4.646920   0.000000   0.000000
                                    CHANNELS 3 Zrotation Xrotation Yrotation
                                    JOINT RightFinger12
                                    {
                                        OFFSET  -2.323470   0.000000   0.000000
                                        CHANNELS 3 Zrotation Xrotation Yrotation
                                        End Site
                                        {
                                            OFFSET  -2.273050   0.000000   0.000000
                                        }
                                    }
                                }
                            }
                            JOINT RightFinger2
                            {
                                OFFSET  -8.364480   0.000000   1.078090
                                CHANNELS 3 Zrotation Xrotation Yrotation
                                JOINT RightFinger21
                                {
                                    OFFSET  -5.111620   0.000000   0.000000
                                    CHANNELS 3 Zrotation Xrotation Yrotation
                                    JOINT RightFinger22
                                    {
                                        OFFSET  -2.788160   0.000000   0.000000
                                        CHANNELS 3 Zrotation Xrotation Yrotation
                                        End Site
                                        {
                                            OFFSET  -2.727660   0.000000   0.000000
                                        }
                                    }
                                }
                            }
                            JOINT RightFinger3
                            {
                                OFFSET  -7.899780   0.000000  -1.078090
                                CHANNELS 3 Zrotation Xrotation Yrotation
                                JOINT RightFinger31
                                {
                                    OFFSET  -4.646930   0.000000   0.000000
                                    CHANNELS 3 Zrotation Xrotation Yrotation
                                    JOINT RightFinger32
                                    {
                                        OFFSET  -2.323470   0.000000   0.000000
                                        CHANNELS 3 Zrotation Xrotation Yrotation
                                        End Site
                                        {
                                            OFFSET  -2.273050   0.000000   0.000000
                                        }
                                    }
                                }
                            }
                            JOINT RightFinger4
                            {
                                OFFSET  -7.435090   0.000000  -3.252850
                                CHANNELS 3 Zrotation Xrotation Yrotation
                                JOINT RightFinger41
                                {
                                    OFFSET  -3.717550   0.000000   0.000000
                                    CHANNELS 3 Zrotation Xrotation Yrotation
                                    JOINT RightFinger42
                                    {
                                        OFFSET  -1.858760   0.000000   0.000000
                                        CHANNELS 3 Zrotation Xrotation Yrotation
                                        End Site
                                        {
                                            OFFSET  -1.818440   0.000000   0.000000
                                        }
                                    }
                                }
                            }
                        }
                    }
                }
            }
        }
    }
    JOINT LeftHip
    {
        OFFSET   9.783010   0.000000   0.000000
        CHANNELS 3 Zrotation Xrotation Yrotation
        JOINT LeftKnee
        {
            OFFSET   0.000073 -41.789100   0.001749
            CHANNELS 3 Zrotation Xrotation Yrotation
            JOINT LeftAnkle
            {
                OFFSET   0.000111 -41.133200  -0.000179
                CHANNELS 3 Zrotation Xrotation Yrotation
                JOINT LeftToe
                {
                    OFFSET   0.000000  -6.358960  14.674500
                    CHANNELS 3 Zrotation Xrotation Yrotation
                    End Site
                    {
                        OFFSET   0.000000   0.000000   3.913200
                    }
                }
            }
        }
    }
    JOINT RightHip
    {
        OFFSET  -9.783010   0.000000   0.000000
        CHANNELS 3 Zrotation Xrotation Yrotation
        JOINT RightKnee
        {
            OFFSET   0.000424 -41.789200   0.005205
            CHANNELS 3 Zrotation Xrotation Yrotation
            JOINT RightAnkle
            {
                OFFSET   0.000000 -41.133200  -0.000155
                CHANNELS 3 Zrotation Xrotation Yrotation
                JOINT RightToe
                {
                    OFFSET   0.000000  -6.358960  14.674500
                    CHANNELS 3 Zrotation Xrotation Yrotation
                    End Site
                    {
                        OFFSET   0.000000   0.000000   3.913200
                    }
                }
            }
        }
    }
}
MOTION
Frames: 4
Frame Time:   0.016667
  0.813876  89.535800   0.249130  -4.239560 -15.323400  -3.269460   1.572900   9.180210   2.144870   2.847620  18.410800   4.111080   3.703740  -0.421475   0.025122   6.085640  -0.843881 -20.230000  -5.818700  -6.136540  -0.173650 -73.754000  24.272300  -4.762470  -1.048720  -7.481060 -16.522700  12.654800  -4.202320   0.828859  40.133400  36.271200 -61.074900 -34.492900  -0.005705   0.003970 -12.246500  -0.003630  -0.000865 -33.199700   5.338420  -8.091930 -27.472500   0.003826  -0.000823 -19.230800   0.003183  -0.001835 -28.591500  -2.116710   3.874820 -38.607300   0.000639  -0.004139 -25.712500   0.002298   0.000000 -28.526100  -2.111390   3.877730 -37.366700   0.000176   0.000621 -24.886200  -0.001297  -0.001675 -33.851100  -2.462370   3.665120 -50.894800  -0.006444  -0.002556 -33.896000   0.001187  -0.003901  10.617100  -5.396930  12.868700  44.127000  11.784700  50.219600 -35.636400 -30.419000  72.532700 -12.837500  -6.932470   5.232210 -47.289500  49.771500  77.668300  40.930000  -0.001993  -0.000123  17.327300   0.004783   0.002238  -4.701840  -1.211240  14.105500  -0.000000  -0.002642  -0.002444  -0.003021  -0.000981   0.001731  72.953100  -0.390140  -0.127202  72.953300   0.000710  -0.000562  54.715000  -0.010018   0.009811  78.318200  -4.895910  -1.021660  78.361400  -0.012819  -0.009124  58.771100  -0.006494   0.002149  80.850500  -9.874310  -1.591580 110.000000  -0.004536   0.000455  80.233100  -0.002780   0.001447   3.217970  18.630800   4.265530   0.920362   0.104812   3.653290  -1.113570  -3.877900   0.639108  -0.000000   0.000000   0.000000   4.078100  16.330000  -0.820435  -0.801564   2.957250  -4.920900  -0.457635  -4.739430  -0.444114  -0.000000   0.000000   0.000000
  0.790433  89.535100   0.278703  -4.236530 -15.304400  -3.269320   1.579640   9.174230   2.125270   2.865150  18.398500   4.069970   3.685440  -0.380134   0.024639   6.055400  -0.761290 -20.105200  -5.838130  -6.136570  -0.153633 -73.753600  24.325400  -4.780710  -1.068120  -7.537780 -16.464200  12.613700  -4.133900   0.848630  40.113300  36.237700 -61.065500 -34.492300  -0.005716   0.003989 -12.246200  -0.003623  -0.000841 -33.189900   5.340050  -8.097340 -27.464800   0.003836  -0.001337 -19.225400   0.003206  -0.002551 -28.592100  -2.113930   3.869840 -38.593900   0.001046  -0.004557 -25.703500   0.002540  -0.000178 -28.525300  -2.108600   3.872750 -37.352300   0.000208   0.000620 -24.876600  -0.001356  -0.001684 -33.836700  -2.458270   3.661010 -50.872800  -0.006389  -0.002582 -33.881400   0.001187  -0.003853  10.642200  -5.358720  12.903600  44.337200  11.900800  50.088400 -35.929500 -30.357800  72.877400 -13.952000  -6.868770   7.010840 -48.329200  50.362200  79.020100  40.512400  -0.002272  -0.000356  16.943500   0.004980   0.001578  -5.124970  -1.539980  16.106600  -0.000000  -0.002629  -0.002377  -0.002969  -0.000968   0.001790  72.622900  -0.452359  -0.150076  72.623200   0.000642  -0.000552  54.467400  -0.010218   0.009816  77.879900  -4.887930  -1.061730  77.924600  -0.013101  -0.009172  58.443500  -0.006488   0.002141  80.461400  -9.863050  -1.660720 110.000000  -0.004605   0.000346  80.208600  -0.002900   0.001866   3.234420  18.654200   4.266210   0.919556   0.053893   3.649740  -1.130560  -3.863650   0.639447  -0.000000   0.000000   0.000000   4.087060  16.329700  -0.821933  -0.792424   2.953430  -4.905790  -0.476372  -4.755430  -0.463469  -0.000000   0.000000  -0.000000
  0.766490  89.533400   0.305842  -4.232380 -15.285400  -3.270120   1.587310   9.168610   2.107590   2.883620  18.387100   4.032720   3.669070  -0.335162   0.024279   6.028250  -0.671369 -19.965700  -5.855630  -6.136590  -0.133106 -73.750400  24.413100  -4.812140  -1.102140  -7.639250 -16.363800  12.573500  -4.055720   0.855574  40.086300  36.197600 -61.037000 -34.488300  -0.005727   0.004007 -12.244200  -0.003619  -0.000817 -33.166900   5.350380  -8.119830 -27.447500   0.003901  -0.001789 -19.213200   0.003230  -0.002953 -28.593900  -2.101200   3.846760 -38.562900   0.001557  -0.004969 -25.682800   0.002734  -0.000324 -28.523900  -2.095870   3.849670 -37.321100   0.000240   0.000615 -24.855900  -0.001417  -0.001693 -33.808900  -2.441800   3.640320 -50.829700  -0.006332  -0.002608 -33.852700   0.001186  -0.003806  10.664000  -5.327270  12.940200  44.511800  12.003600  49.982500 -36.248400 -30.273600  73.162200 -15.297100  -6.798060   8.831460 -49.155200  50.753600  80.213500  40.218900  -0.002552  -0.000619  16.620500   0.005157   0.000906  -5.386170  -1.733090  17.668000  -0.000000  -0.002611  -0.002308  -0.002906  -0.000954   0.001846  72.276600  -0.517627  -0.172935  72.277100   0.000532  -0.000544  54.207900  -0.010400   0.009822  77.363600  -4.877870  -1.106330  77.410000  -0.013141  -0.009209  58.057600  -0.006443   0.002133  79.988700  -9.849070  -1.742240 110.000000  -0.004670   0.000236  80.040500  -0.003015   0.002219   3.247010  18.674200   4.266760   0.920681   0.002974   3.649240  -1.147300  -3.849390   0.641884   0.000000   0.000000  -0.000000   4.096300  16.329400  -0.825528  -0.784134   2.948380  -4.892570  -0.495168  -4.769100  -0.471014   0.000000   0.000000   0.000000
  0.742675  89.530900   0.331498  -4.231330 -15.268300  -3.281570   1.593210   9.163090   2.093710   2.898150  18.376000   4.003480   3.658030  -0.291462   0.023951   6.010060  -0.583793 -19.813300  -5.868230  -6.135130  -0.115520 -73.748800  24.498200  -4.846540  -1.137870  -7.753890 -16.269100  12.555200  -3.975280   0.847117  40.099100  36.175500 -61.004300 -34.455400  -0.005738   0.004024 -12.227700  -0.003625  -0.000794 -33.125500   5.377520  -8.172200 -27.416800   0.003982  -0.002154 -19.191700   0.003242  -0.002441 -28.598000  -2.070510   3.790840 -38.509600   0.002135  -0.005379 -25.647300   0.002879  -0.000424 -28.522600  -2.065220   3.793740 -37.270100   0.000269   0.000606 -24.821900  -0.001478  -0.001700 -33.772700  -2.404070   3.588800 -50.771300  -0.006275  -0.002635 -33.813700   0.001187  -0.003762  10.673300  -5.297380  12.966200  44.643000  12.076600  49.899600 -36.559500 -30.120000  73.381300 -17.015800  -6.845110  10.607200 -49.330100  50.834700  80.955400  40.180200  -0.002830  -0.000937  16.505600   0.005319   0.000217  -5.159920  -1.711050  18.561600  -0.000000  -0.002583  -0.002238  -0.002840  -0.000939   0.001900  72.024800  -0.565095  -0.187920  72.025500   0.000418  -0.000547  54.019200  -0.010556   0.009816  76.815500  -4.865280  -1.149040  76.863800  -0.009869  -0.009235  57.647900  -0.006197   0.002133  79.497300  -9.834060  -1.823260 110.000000  -0.004734   0.000116  79.611800  -0.003118   0.002504   3.261350  18.635000   4.260740   0.925160   0.085511   3.654340  -1.166060  -3.902420   0.652024  -0.000000   0.000000  -0.000000   4.107950  16.331400  -0.832421  -0.777377   2.937920  -4.885500  -0.512767  -4.777670  -0.463245  -0.000000   0.000000   0.000000
